<?xml version="1.0" encoding="UTF-8"?>
<svg version="1.1" xmlns="http://www.w3.org/2000/svg" width="512" height="512">
<path d="M0 0 C1.11632812 -0.0038269 2.23265625 -0.00765381 3.3828125 -0.01159668 C5.72917591 -0.01430326 8.07557015 -0.00703061 10.421875 0.00976562 C13.990275 0.03119161 17.55666179 0.00991927 21.125 -0.015625 C23.41667106 -0.0129815 25.70834088 -0.00785608 28 0 C29.58167969 -0.01214539 29.58167969 -0.01214539 31.1953125 -0.02453613 C42.25129185 0.11375197 49.84762535 3.55658962 57.80078125 11.16015625 C65.31438437 19.26096814 67.32637904 27.0472728 67.125 37.90625 C67.11597656 38.83308594 67.10695313 39.75992188 67.09765625 40.71484375 C67.07422937 42.98725077 67.04142748 45.2591118 67 47.53125 C67.6808667 47.68996582 68.3617334 47.84868164 69.06323242 48.01220703 C77.84341823 50.10762859 85.82810109 53.78878689 94 57.53125 C94.4125 57.09554687 94.825 56.65984375 95.25 56.2109375 C104.06877572 47.11657503 113.37757154 40.31831448 126.4296875 39.5 C141.62986546 39.6848046 150.58998294 47.38373928 161 57.53125 C162.08837158 58.58094971 162.08837158 58.58094971 163.19873047 59.65185547 C165.60195758 61.97552199 167.99050574 64.31337248 170.375 66.65625 C171.13611084 67.39576904 171.89722168 68.13528809 172.68139648 68.8972168 C181.27139904 77.43803092 187.99742488 86.7506921 188.99609375 99.1171875 C189.01383408 110.08071009 185.33712466 119.3495384 177.71850586 127.14453125 C175.51761215 129.31769883 173.27490928 131.43562429 171 133.53125 C172.41543262 137.99530671 174.11944875 142.24359314 176 146.53125 C177.88055125 150.81890686 179.58456738 155.06719329 181 159.53125 C181.55349121 159.57088867 182.10698242 159.61052734 182.67724609 159.65136719 C198.1472705 160.81685082 208.62619978 162.21239568 220 173.53125 C217.04288407 176.48836593 213.35259709 176.94065848 209.40625 177.95703125 C207.63536299 178.42883502 205.86453147 178.90084715 204.09375 179.37304688 C201.30827225 180.10726248 198.5219588 180.83802962 195.734375 181.56420898 C179.8690659 184.94513102 179.8690659 184.94513102 166.38085938 193.17700195 C165 194.53125 165 194.53125 163 194.53125 C162.72166069 195.11902442 162.44332138 195.70679884 162.15654755 196.31238461 C161.07601155 198.38541994 159.85819537 200.14047231 158.49523926 202.03309631 C155.22795683 207.22655269 154.81567974 212.51027731 154.07617188 218.50170898 C149.1779223 250.23372511 140.00173371 272.00135317 117.03125 294.75390625 C116.4667577 295.31312507 115.9022654 295.87234389 115.32066727 296.44850874 C108.35844416 303.3085857 101.21590954 309.9639005 93.99564838 316.55063474 C87.18329888 322.77313216 80.51753616 329.14692916 73.8515625 335.52539062 C71.48983282 337.78446996 69.12731629 340.04271922 66.7635498 342.29966736 C66.19081565 342.84661001 65.6180815 343.39355266 65.02799177 343.95706934 C61.13911353 347.66271935 57.21153521 351.32371917 53.26477051 354.96754456 C51.70350673 356.41724292 50.14313178 357.86789085 48.58310318 359.31891823 C47.16482544 360.63102397 45.73480114 361.93039812 44.30429077 363.22915649 C32.59831881 374.12761515 24.93105152 387.56186568 23.77734375 403.6328125 C23.5891321 410.49026302 24.43693461 416.48473713 26.34375 423.0703125 C27 425.53125 27 425.53125 27 428.53125 C21.66561134 428.65611865 16.33209842 428.74617871 10.99658203 428.8059082 C9.18686071 428.83084214 7.37723786 428.86480243 5.56787109 428.90844727 C-7.40780833 429.21329324 -19.44563786 428.79908933 -29.47265625 419.3359375 C-39.37356298 407.63716791 -40.18360742 396.24024482 -40 381.53125 C-40.52464844 381.39589844 -41.04929688 381.26054687 -41.58984375 381.12109375 C-50.35822149 378.68462273 -58.63504999 375.0732532 -67 371.53125 C-68.09054688 372.74361328 -68.09054688 372.74361328 -69.203125 373.98046875 C-77.82300947 383.26353264 -86.24511568 388.9609571 -99.33984375 389.6015625 C-117.58966861 389.11918827 -128.15088501 376.57298516 -140.30639648 364.46508789 C-141.82161543 362.95969367 -143.34721058 361.46532525 -144.87304688 359.97070312 C-154.36385839 350.58198285 -160.09978294 342.35079453 -161.02734375 328.7578125 C-160.9145777 315.45141824 -154.75408188 306.94085881 -145.6953125 297.92578125 C-143.71453029 295.69492466 -143.71453029 295.69492466 -144.27856445 293.18115234 C-144.98106217 290.60081046 -145.82739481 288.20908289 -146.84765625 285.73828125 C-147.20537109 284.86107422 -147.56308594 283.98386719 -147.93164062 283.08007812 C-148.30482422 282.17708984 -148.67800781 281.27410156 -149.0625 280.34375 C-149.80651121 278.5390459 -150.54755141 276.73311317 -151.28515625 274.92578125 C-151.61394775 274.13018799 -151.94273926 273.33459473 -152.28149414 272.51489258 C-153 270.53125 -153 270.53125 -153 268.53125 C-153.81082031 268.55445313 -154.62164062 268.57765625 -155.45703125 268.6015625 C-166.95521336 268.78896011 -176.26082599 267.9713529 -186 261.53125 C-186.886875 260.95375 -187.77375 260.37625 -188.6875 259.78125 C-196.62860819 252.05476635 -200.29439757 242.9425089 -200.46813965 232.00445557 C-200.46834106 230.94595398 -200.46854248 229.88745239 -200.46875 228.796875 C-200.47636353 227.68246033 -200.48397705 226.56804565 -200.49182129 225.41986084 C-200.50258798 223.06996897 -200.50548943 220.72002939 -200.50097656 218.37011719 C-200.50000668 214.80581279 -200.54162148 211.24368041 -200.5859375 207.6796875 C-200.59114728 205.3854211 -200.59383265 203.09114731 -200.59375 200.796875 C-200.61014526 199.74647034 -200.62654053 198.69606567 -200.64343262 197.61383057 C-200.5620858 188.74649943 -198.14163838 180.34074887 -192.75 173.15625 C-180.92640794 161.87009394 -168.75686027 160.2948971 -153 160.53125 C-152.85304687 159.97179687 -152.70609375 159.41234375 -152.5546875 158.8359375 C-150.67820198 152.12804097 -148.04278825 145.93266666 -145.109375 139.6328125 C-143.8757078 136.75282742 -143.8757078 136.75282742 -144.02734375 134.4453125 C-145.4845032 131.57780998 -147.57207487 129.57743973 -149.8125 127.28125 C-157.26637964 119.35492283 -160.90554667 111.55978334 -161.03515625 100.54296875 C-160.16902057 83.91738882 -149.48371654 73.65461761 -138.28515625 62.50073242 C-136.62605605 60.84480403 -134.9807843 59.17593239 -133.3359375 57.50585938 C-123.54246119 47.64968923 -115.28886427 40.88622851 -101 39.53125 C-87.98984098 39.88607252 -79.19378905 44.74720115 -70.40185547 53.87280273 C-69.25913377 55.08407117 -68.12824317 56.30648412 -67 57.53125 C-66.45214844 57.31210938 -65.90429688 57.09296875 -65.33984375 56.8671875 C-63.63186938 56.18399775 -61.92349355 55.50181127 -60.21484375 54.8203125 C-57.82901639 53.8636624 -55.44675477 52.89977878 -53.06640625 51.9296875 C-52.39424072 51.65721191 -51.7220752 51.38473633 -51.02954102 51.10400391 C-49.6864698 50.55953741 -48.34448787 50.01237539 -47.00366211 49.46240234 C-42.22545719 47.53125 -42.22545719 47.53125 -40 47.53125 C-40.03480469 46.65984375 -40.06960937 45.7884375 -40.10546875 44.890625 C-40.40708662 31.61943873 -38.58702097 20.77697307 -29.5 10.78125 C-28.675 10.03875 -27.85 9.29625 -27 8.53125 C-26.278125 7.850625 -25.55625 7.17 -24.8125 6.46875 C-16.97715323 1.07106667 -9.34517194 -0.07175961 0 0 Z M-54.3125 148.46875 C-71.71097122 166.77909078 -81.12299936 190.6465813 -81.03125 215.8203125 C-80.33931403 242.65885556 -68.50386097 266.85658886 -49.328125 285.4453125 C-31.19862881 301.68885439 -7.0122858 310.4078398 17.24609375 309.375 C43.32412868 307.68374669 66.23146184 297.1634433 84.3125 278.21875 C103.31391016 256.25324466 109.82433125 231.12727155 108 202.53125 C105.79988837 178.62436805 92.06888135 156.86928085 74.3125 141.28125 C34.92000235 109.98100962 -18.4475021 114.41441219 -54.3125 148.46875 Z " fill="#000000" transform="translate(200,30.46875)"/>
<path d="M0 0 C2.41210401 2.26134751 2.89450732 3.53583221 3.625 6.75 C1.82352461 16.11767201 -10.01605241 24.03435326 -16.75878906 30.51196289 C-18.22874703 31.9270967 -19.68538153 33.35491508 -21.140625 34.78515625 C-22.43274902 36.03631226 -22.43274902 36.03631226 -23.75097656 37.31274414 C-27.85598962 42.21763761 -29.59798895 47.34154281 -29.34765625 53.73046875 C-28.5337458 59.04374931 -26.10541727 63.29262445 -22.125 66.875 C-16.6346721 70.60842297 -12.21652142 71.58822139 -5.6875 70.63500977 C5.02532728 68.10375397 13.13023991 57.05545395 20.43603516 49.42700195 C22.06868271 47.72805038 23.71334335 46.04144055 25.359375 44.35546875 C25.85217957 43.83260788 26.34498413 43.30974701 26.85272217 42.77104187 C29.74559159 39.81685559 31.80199047 38.18698286 36 38 C41.72636179 40.23467777 43.38470568 44.76941136 46 50 C47.8164982 62.63869664 43.59935123 74.80361065 40.23828125 86.83349609 C39.24791783 90.38246146 38.2860263 93.93824459 37.328125 97.49609375 C36.70477334 99.77649288 36.07982847 102.05645724 35.453125 104.3359375 C35.16753723 105.38816498 34.88194946 106.44039246 34.58770752 107.52450562 C32.04463824 116.56446656 29.33645388 124.83020094 21 130 C13.65633976 133.22005341 5.95756843 135.13637567 -1.8359375 136.91015625 C-4.05600577 137.43026947 -6.27605737 137.95045382 -8.49609375 138.47070312 C-11.95172434 139.2718551 -15.40800608 140.07010382 -18.86474609 140.86645508 C-22.2318628 141.64467013 -25.59643814 142.43321511 -28.9609375 143.22265625 C-29.99431244 143.45710953 -31.02768738 143.69156281 -32.09237671 143.93312073 C-33.05753204 144.16023239 -34.02268738 144.38734406 -35.01708984 144.62133789 C-35.86105316 144.81578995 -36.70501648 145.010242 -37.57455444 145.21058655 C-42.42845153 146.79039181 -45.86158057 149.61309328 -49.41975403 153.19270325 C-50.27330978 154.04639999 -51.12686554 154.90009674 -52.00628662 155.77966309 C-52.92951721 156.71322632 -53.8527478 157.64678955 -54.80395508 158.60864258 C-55.79617939 159.60470817 -56.7888622 160.6003172 -57.78196716 161.59550476 C-59.91556743 163.73541555 -62.046023 165.87839151 -64.17411232 168.02378273 C-67.54429232 171.42107682 -70.92214904 174.81066801 -74.30119324 178.19914246 C-82.08646978 186.0084834 -89.86172353 193.82777868 -97.63683319 201.64723969 C-104.75683658 208.80767172 -111.878975 215.96594514 -119.00928229 223.11611861 C-122.36261487 226.4793727 -125.71101909 229.84743269 -129.05564654 233.21934283 C-131.14513479 235.3238375 -133.23883728 237.42410156 -135.33365822 239.52328682 C-136.75491802 240.9500264 -138.171124 242.38179493 -139.58712769 243.81375122 C-152.11655531 256.34522816 -152.11655531 256.34522816 -160.3125 259.3125 C-161.13363281 259.61800781 -161.95476562 259.92351562 -162.80078125 260.23828125 C-172.62327915 263.64038976 -184.21711409 263.26280235 -193.78125 259.12890625 C-196.75020191 257.61829516 -199.36521756 256.04927523 -202 254 C-202.95326172 253.26136719 -202.95326172 253.26136719 -203.92578125 252.5078125 C-213.3616673 244.79561938 -218.77386259 234.90705578 -220.7109375 222.890625 C-221.90571658 210.9428342 -218.45680107 200.80386712 -211.12693977 191.49606133 C-207.37766437 187.09611477 -203.13494977 183.25525963 -198.88061523 179.35180664 C-196.82080216 177.44140802 -194.76551819 175.52615389 -192.70957947 173.61158752 C-191.90363856 172.86289971 -191.90363856 172.86289971 -191.08141601 172.09908688 C-184.07913028 165.58679743 -177.18654744 158.95917041 -170.29073989 152.33452618 C-163.62152806 145.92799709 -156.92455733 139.5615636 -150.10522461 133.31469727 C-118.04260001 103.89303088 -97.22926826 80.20338997 -92.36295509 35.57021141 C-91.40511574 27.21899799 -89.11280024 19.53195696 -82.75 13.6875 C-76.32044637 9.40914282 -68.38891614 7.90858697 -61 6 C-59.38331437 5.5704268 -57.76694234 5.13967169 -56.15087891 4.70776367 C-52.93567702 3.85212168 -49.71777657 3.00801487 -46.49707031 2.17333984 C-42.5376619 1.14561195 -38.59248299 0.07341838 -34.6484375 -1.01171875 C-32.55774185 -1.5719951 -30.46663087 -2.1307252 -28.375 -2.6875 C-27.45460938 -2.94337891 -26.53421875 -3.19925781 -25.5859375 -3.46289062 C-16.46758014 -5.80354039 -7.96608198 -5.36803126 0 0 Z M-105.63818359 134.86181641 C-106.16575256 135.37887146 -106.69332153 135.89592651 -107.23687744 136.4286499 C-108.97277596 138.13818802 -110.68585705 139.86868826 -112.3984375 141.6015625 C-113.5996794 142.7987617 -114.8018107 143.99506911 -116.00479126 145.19052124 C-118.52104981 147.69793858 -121.02614827 150.21587538 -123.52392578 152.74169922 C-126.7251102 155.97706867 -129.9524793 159.18475236 -133.18869591 162.38503456 C-135.67542884 164.85007665 -138.14768144 167.32924372 -140.61580276 169.81290817 C-141.80032716 171.00143246 -142.98931775 172.18552292 -144.18281174 173.36503983 C-145.84956506 175.01653738 -147.49584617 176.68608332 -149.13818359 178.36181641 C-149.6336972 178.84518463 -150.12921082 179.32855286 -150.63973999 179.8265686 C-153.02189907 182.29915672 -153.9657897 183.73195453 -154.40542603 187.17660522 C-153.86990865 190.90595869 -152.76108642 192.45689409 -150 195 C-147.14710302 196.25329784 -147.14710302 196.25329784 -144 196 C-139.79786281 193.51301176 -136.39098486 190.64319301 -132.94433594 187.203125 C-132.47850098 186.74079468 -132.01266602 186.27846436 -131.53271484 185.80212402 C-130.01157038 184.28970193 -128.49776517 182.77017828 -126.984375 181.25 C-125.92186153 180.18883545 -124.85905146 179.1279678 -123.79595947 178.06738281 C-121.57718008 175.85154142 -119.36203184 173.6321498 -117.14941406 171.41015625 C-114.31603122 168.56535177 -111.47372575 165.72965845 -108.62865829 162.89654541 C-106.43572697 160.7108447 -104.24758577 158.5203985 -102.06085968 156.32849121 C-101.01455633 155.28085614 -99.96677198 154.23469798 -98.91747284 153.19006348 C-97.45277832 151.73045696 -95.99466225 150.26457705 -94.53808594 148.796875 C-93.70790955 147.96510742 -92.87773315 147.13333984 -92.0223999 146.27636719 C-89.21908682 143.12102194 -87.97397738 141.24908562 -88.0625 137 C-89.26077199 133.16552962 -90.54169366 131.99813255 -94 130 C-99.5132106 129.20832925 -101.95041363 131.08138543 -105.63818359 134.86181641 Z M-178.9375 204.6875 C-180.25868023 208.80647366 -180.5230676 211.91043728 -179 216 C-176.72223661 218.91726163 -173.98907 220.59422769 -170.5625 222 C-166.80083234 222 -164.28775514 220.76564628 -161 219 C-158.27952419 216.27952419 -157.17899503 213.84839309 -157 210 C-158.28327627 205.69725015 -159.43395109 203.47991103 -162.875 200.5625 C-169.18179261 197.4091037 -174.73541631 198.85880327 -178.9375 204.6875 Z " fill="#000000" transform="translate(466,219)"/>
</svg>
